<?xml version="1.0" encoding="UTF-8" standalone="no"?>
<svg
   xmlns:dc="http://purl.org/dc/elements/1.1/"
   xmlns:cc="http://creativecommons.org/ns#"
   xmlns:rdf="http://www.w3.org/1999/02/22-rdf-syntax-ns#"
   xmlns:svg="http://www.w3.org/2000/svg"
   xmlns="http://www.w3.org/2000/svg"
   xmlns:sodipodi="http://sodipodi.sourceforge.net/DTD/sodipodi-0.dtd"
   xmlns:inkscape="http://www.inkscape.org/namespaces/inkscape"
   version="1.1"
   id="svg2"
   xml:space="preserve"
   width="382.18552"
   height="62.076664"
   viewBox="0 0 382.1855 62.076664"
   sodipodi:docname="UNI_and_CNS_LOGO_uniblue.svg"
   inkscape:version="1.0.1 (0767f8302a, 2020-10-17)"
   inkscape:export-filename="/home/jungr/workspace/NAV/pr/logo_collection/cns/UNI_and_CNS_LOGO_uniblue.png"
   inkscape:export-xdpi="600"
   inkscape:export-ydpi="600"><metadata
     id="metadata8"><rdf:RDF><cc:Work
         rdf:about=""><dc:format>image/svg+xml</dc:format><dc:type
           rdf:resource="http://purl.org/dc/dcmitype/StillImage" /><dc:title></dc:title></cc:Work></rdf:RDF></metadata><defs
     id="defs6"><clipPath
       clipPathUnits="userSpaceOnUse"
       id="clipPath18"><path
         d="M 0,350.079 H 350.079 V 0 H 0 Z"
         id="path16"
         inkscape:connector-curvature="0" /></clipPath></defs><sodipodi:namedview
     pagecolor="#ffffff"
     bordercolor="#666666"
     borderopacity="1"
     objecttolerance="10"
     gridtolerance="10"
     guidetolerance="10"
     inkscape:pageopacity="0"
     inkscape:pageshadow="2"
     inkscape:window-width="2513"
     inkscape:window-height="1416"
     id="namedview4"
     showgrid="false"
     inkscape:zoom="4.0448013"
     inkscape:cx="259.90197"
     inkscape:cy="-7.6977242"
     inkscape:window-x="1967"
     inkscape:window-y="24"
     inkscape:window-maximized="1"
     inkscape:current-layer="layer2"
     fit-margin-top="0"
     fit-margin-left="0"
     fit-margin-right="0"
     fit-margin-bottom="0"
     inkscape:document-rotation="0" /><g
     inkscape:groupmode="layer"
     id="layer1"
     inkscape:label="bg"
     style="display:inline" /><g
     id="g10"
     inkscape:groupmode="layer"
     inkscape:label="UNI_LOGO_positiv"
     transform="matrix(1.3333333,0,0,-1.3333333,-115.28453,276.02839)"
     style="display:inline"><g
       inkscape:groupmode="layer"
       id="layer3"
       inkscape:label="TEXT"
       transform="matrix(0.75000002,0,0,-0.75000002,86.4634,207.0213)"
       style="display:inline"><g
         id="g32"
         transform="matrix(1.3333333,0,0,-1.3333333,80.669864,40.216799)"
         style="display:inline"><path
           d="m 0,0 c -1.174,0 -2.147,0.365 -2.921,1.096 -0.774,0.73 -1.161,1.677 -1.161,2.84 v 7.551 h 1.729 V 4.016 c 0,-0.758 0.21,-1.358 0.632,-1.8 C -1.299,1.773 -0.726,1.552 0,1.552 c 0.715,0 1.289,0.221 1.721,0.664 0.432,0.442 0.648,1.042 0.648,1.8 v 7.471 h 1.73 V 3.936 C 4.099,2.773 3.711,1.826 2.938,1.096 2.164,0.365 1.185,0 0,0"
           style="fill:#336b81;fill-opacity:1;fill-rule:nonzero;stroke:none"
           id="path34"
           inkscape:connector-curvature="0" /></g><g
         id="g36"
         transform="matrix(1.3333333,0,0,-1.3333333,100.64906,40.109999)"
         style="display:inline"><path
           d="M 0,0 -5.267,8.031 V 0 h -1.729 v 11.407 l 1.584,-10e-4 5.267,-8.005 v 8.006 h 1.73 L 1.585,0 Z"
           style="fill:#336b81;fill-opacity:1;fill-rule:nonzero;stroke:none"
           id="path38"
           inkscape:connector-curvature="0" /></g><path
         d="m 167.6,188.346 h 1.729 V 176.939 H 167.6 Z"
         style="display:inline;fill:#336b81;fill-opacity:1;fill-rule:nonzero;stroke:none"
         id="path40"
         inkscape:connector-curvature="0"
         transform="matrix(1.3333333,0,0,-1.3333333,-115.28453,276.02839)" /><g
         id="g42"
         transform="matrix(1.3333333,0,0,-1.3333333,120.81826,40.109999)"
         style="display:inline"><path
           d="m 0,0 h -1.345 l -3.746,11.407 1.786,-0.002 2.627,-8.307 2.634,8.308 1.821,10e-4 z"
           style="fill:#336b81;fill-opacity:1;fill-rule:nonzero;stroke:none"
           id="path44"
           inkscape:connector-curvature="0" /></g><g
         id="g46"
         transform="matrix(1.3333333,0,0,-1.3333333,129.39773,40.109999)"
         style="display:inline"><path
           d="M 0,0 V 11.407 H 7.284 V 9.855 H 1.729 V 6.527 H 6.468 V 4.991 H 1.729 V 1.552 H 7.284 V 0 Z"
           style="fill:#336b81;fill-opacity:1;fill-rule:nonzero;stroke:none"
           id="path48"
           inkscape:connector-curvature="0" /></g><g
         id="g50"
         transform="matrix(1.3333333,0,0,-1.3333333,149.43946,26.969333)"
         style="display:inline"><path
           d="M 0,0 H -2.562 V -3.584 H 0 c 0.576,0 1.043,0.158 1.4,0.475 0.358,0.315 0.537,0.752 0.537,1.309 0,0.557 -0.176,0.996 -0.529,1.318 C 1.056,-0.16 0.586,0 0,0 m 1.998,-9.857 -2.394,4.82 -2.166,-0.003 V -9.855 H -4.291 V 1.552 h 4.419 c 1.066,0 1.923,-0.307 2.569,-0.92 0.646,-0.613 0.968,-1.416 0.968,-2.407 0,-0.78 -0.211,-1.433 -0.632,-1.961 C 2.611,-4.264 2.064,-4.618 1.393,-4.8 l 2.625,-5.055 z"
           style="fill:#336b81;fill-opacity:1;fill-rule:nonzero;stroke:none"
           id="path52"
           inkscape:connector-curvature="0" /></g><g
         id="g54"
         transform="matrix(1.3333333,0,0,-1.3333333,163.18546,40.216799)"
         style="display:inline"><path
           d="m 0,0 c -0.876,0 -1.633,0.114 -2.273,0.344 -0.641,0.229 -1.228,0.616 -1.761,1.16 l 1.152,1.136 c 0.395,-0.395 0.83,-0.675 1.305,-0.84 0.474,-0.166 1.011,-0.248 1.608,-0.248 0.747,0 1.326,0.152 1.738,0.456 0.41,0.304 0.616,0.733 0.616,1.288 0,0.522 -0.11,0.882 -0.328,1.08 C 1.838,4.573 1.638,4.709 1.456,4.784 1.274,4.858 1.019,4.917 0.687,4.96 l -1.343,0.191 c -0.929,0.128 -1.66,0.443 -2.194,0.945 -0.534,0.501 -0.8,1.216 -0.8,2.143 0,1.003 0.341,1.811 1.024,2.425 0.684,0.613 1.611,0.92 2.786,0.92 1.43,0 2.609,-0.433 3.537,-1.296 L 2.593,9.199 C 2.262,9.52 1.894,9.746 1.488,9.88 c -0.405,0.133 -0.864,0.2 -1.377,0.2 -0.65,0 -1.16,-0.168 -1.528,-0.504 C -1.785,9.239 -1.97,8.815 -1.97,8.304 c 0,-0.449 0.147,-0.803 0.441,-1.065 0.294,-0.26 0.717,-0.434 1.272,-0.519 L 1.04,6.527 C 1.553,6.453 1.971,6.349 2.297,6.216 2.622,6.082 3.004,5.823 3.441,5.439 3.879,5.056 4.098,4.357 4.098,3.344 4.098,2.309 3.722,1.493 2.969,0.896 2.217,0.298 1.227,0 0,0"
           style="fill:#336b81;fill-opacity:1;fill-rule:nonzero;stroke:none"
           id="path56"
           inkscape:connector-curvature="0" /></g><path
         d="m 216.359,188.346 h 1.729 v -11.407 h -1.729 z"
         style="display:inline;fill:#336b81;fill-opacity:1;fill-rule:nonzero;stroke:none"
         id="path58"
         inkscape:connector-curvature="0"
         transform="matrix(1.3333333,0,0,-1.3333333,-115.28453,276.02839)" /><g
         id="g60"
         transform="matrix(1.3333333,0,0,-1.3333333,186.0644,26.969333)"
         style="display:inline"><path
           d="M 0,0 V -9.855 H -1.729 V 0 H -4.866 V 1.552 H 3.138 V 0 Z"
           style="fill:#336b81;fill-opacity:1;fill-rule:nonzero;stroke:none"
           id="path62"
           inkscape:connector-curvature="0" /></g><path
         d="m 236.674,191.258 h 1.473 v -1.728 h -1.473 z m -0.91,-5.503 -1.767,-5.056 h 3.482 z m -2.548,5.503 h 1.473 v -1.728 h -1.473 z m 5.539,-14.319 -0.776,2.304 h -4.499 l -0.793,-2.304 h -1.84 l 4.177,11.407 h 1.394 l 4.178,-11.407 z"
         style="display:inline;fill:#336b81;fill-opacity:1;fill-rule:nonzero;stroke:none"
         id="path64"
         inkscape:connector-curvature="0"
         transform="matrix(1.3333333,0,0,-1.3333333,-115.28453,276.02839)" /><g
         id="g66"
         transform="matrix(1.3333333,0,0,-1.3333333,214.26106,26.969333)"
         style="display:inline"><path
           d="M 0,0 V -9.855 H -1.729 V 0 H -4.866 V 1.552 H 3.138 V 0 Z"
           style="fill:#336b81;fill-opacity:1;fill-rule:nonzero;stroke:none"
           id="path68"
           inkscape:connector-curvature="0" /></g><g
         id="g70"
         transform="matrix(1.3333333,0,0,-1.3333333,84.352131,60.879598)"
         style="display:inline"><path
           d="M 0,0 -3.198,5.633 -5.113,3.324 v -3.32 h -1.728 v 11.407 h 1.728 V 5.683 l 4.656,5.728 2.106,0.005 L -2.043,6.95 2.039,0.004 Z"
           style="fill:#4699c2;fill-opacity:1;fill-rule:nonzero;stroke:none"
           id="path72"
           inkscape:connector-curvature="0" /></g><g
         id="g74"
         transform="matrix(1.3333333,0,0,-1.3333333,90.527997,60.874265)"
         style="display:inline"><path
           d="M 0,0 V 11.407 H 1.728 V 1.552 H 7.216 V 0 Z"
           style="fill:#4699c2;fill-opacity:1;fill-rule:nonzero;stroke:none"
           id="path76"
           inkscape:connector-curvature="0" /></g><g
         id="g78"
         transform="matrix(1.3333333,0,0,-1.3333333,108.77013,49.119065)"
         style="display:inline"><path
           d="m 0,0 -1.767,-5.057 h 3.482 z m 2.989,-8.816 -0.775,2.303 h -4.496 l -0.793,-2.303 h -1.84 L -0.739,2.591 H 0.653 L 4.829,-8.816 Z"
           style="fill:#4699c2;fill-opacity:1;fill-rule:nonzero;stroke:none"
           id="path80"
           inkscape:connector-curvature="0" /></g><g
         id="g82"
         transform="matrix(1.3333333,0,0,-1.3333333,127.71026,59.258398)"
         style="display:inline"><path
           d="m 0,0 c -0.427,-0.446 -0.898,-0.773 -1.416,-0.981 -0.518,-0.207 -1.091,-0.311 -1.72,-0.311 -1.183,0 -2.106,0.33 -2.767,0.992 -0.662,0.661 -1.049,1.29 -1.16,1.888 -0.113,0.597 -0.168,1.567 -0.168,2.912 0,1.333 0.055,2.301 0.168,2.903 0.112,0.603 0.5,1.236 1.162,1.897 0.663,0.661 1.587,0.992 2.773,0.992 1.165,0 2.106,-0.33 2.821,-0.989 C 0.409,8.645 0.854,7.79 1.024,6.739 H -0.72 C -0.87,7.374 -1.148,7.866 -1.555,8.216 -1.961,8.565 -2.485,8.739 -3.128,8.739 -3.46,8.739 -3.772,8.676 -4.067,8.548 -4.361,8.42 -4.629,8.228 -4.87,7.972 -5.11,7.716 -5.276,7.351 -5.367,6.876 -5.458,6.401 -5.504,5.609 -5.504,4.5 c 0,-1.163 0.043,-1.969 0.128,-2.416 0.086,-0.448 0.307,-0.864 0.664,-1.248 0.358,-0.384 0.883,-0.576 1.576,-0.576 0.768,0 1.365,0.245 1.792,0.736 0.427,0.49 0.64,1.108 0.64,1.856 v 0.64 h -2.432 v 1.455 h 4.16 V 3.208 C 1.024,2.463 0.947,1.844 0.792,1.349 0.638,0.854 0.374,0.404 0,0"
           style="fill:#4699c2;fill-opacity:1;fill-rule:nonzero;stroke:none"
           id="path84"
           inkscape:connector-curvature="0" /></g><g
         id="g86"
         transform="matrix(1.3333333,0,0,-1.3333333,133.7272,60.874265)"
         style="display:inline"><path
           d="M 0,0 V 11.407 H 7.279 V 9.855 H 1.728 V 6.527 H 6.464 V 4.991 H 1.728 V 1.552 H 7.279 V 0 Z"
           style="fill:#4699c2;fill-opacity:1;fill-rule:nonzero;stroke:none"
           id="path88"
           inkscape:connector-curvature="0" /></g><g
         id="g90"
         transform="matrix(1.3333333,0,0,-1.3333333,157.1712,60.874265)"
         style="display:inline"><path
           d="M 0,0 -5.265,8.031 V 0 h -1.727 v 11.407 l 1.582,-10e-4 5.265,-8.005 v 8.006 H 1.584 V 0 Z"
           style="fill:#4699c2;fill-opacity:1;fill-rule:nonzero;stroke:none"
           id="path92"
           inkscape:connector-curvature="0" /></g><g
         id="g94"
         transform="matrix(1.3333333,0,0,-1.3333333,166.81306,47.733732)"
         style="display:inline"><path
           d="M 0,0 V -3.472 H 4.736 V -5.023 H 0 V -9.855 H -1.728 V 1.552 h 7.28 L 5.552,0 Z"
           style="fill:#4699c2;fill-opacity:1;fill-rule:nonzero;stroke:none"
           id="path96"
           inkscape:connector-curvature="0" /></g><g
         id="g98"
         transform="matrix(1.3333333,0,0,-1.3333333,183.45373,60.981065)"
         style="display:inline"><path
           d="m 0,0 c -1.173,0 -2.146,0.365 -2.92,1.096 -0.773,0.73 -1.16,1.677 -1.16,2.84 v 7.551 h 1.728 V 4.016 c 0,-0.758 0.211,-1.358 0.632,-1.8 0.421,-0.443 0.994,-0.664 1.72,-0.664 0.715,0 1.288,0.221 1.721,0.664 0.431,0.442 0.647,1.042 0.647,1.8 v 7.471 H 4.097 V 3.936 C 4.097,2.773 3.71,1.826 2.937,1.096 2.163,0.365 1.185,0 0,0"
           style="fill:#4699c2;fill-opacity:1;fill-rule:nonzero;stroke:none"
           id="path100"
           inkscape:connector-curvature="0" /></g><g
         id="g102"
         transform="matrix(1.3333333,0,0,-1.3333333,199.62426,47.733732)"
         style="display:inline"><path
           d="M 0,0 H -2.561 V -3.584 H 0 c 0.575,0 1.042,0.158 1.399,0.475 0.358,0.315 0.537,0.752 0.537,1.309 0,0.557 -0.176,0.996 -0.529,1.318 C 1.056,-0.16 0.586,0 0,0 m 1.997,-9.857 -2.393,4.82 -2.165,-0.003 V -9.855 H -4.288 V 1.552 h 4.416 c 1.066,0 1.922,-0.307 2.567,-0.92 0.646,-0.613 0.969,-1.416 0.969,-2.407 0,-0.78 -0.211,-1.433 -0.633,-1.961 C 2.61,-4.264 2.063,-4.618 1.392,-4.8 l 2.624,-5.055 z"
           style="fill:#4699c2;fill-opacity:1;fill-rule:nonzero;stroke:none"
           id="path104"
           inkscape:connector-curvature="0" /></g><g
         id="g106"
         transform="matrix(1.3333333,0,0,-1.3333333,214.27933,47.733732)"
         style="display:inline"><path
           d="M 0,0 V -9.855 H -1.728 V 0 h -3.135 v 1.552 h 8 L 3.137,0 Z"
           style="fill:#4699c2;fill-opacity:1;fill-rule:nonzero;stroke:none"
           id="path108"
           inkscape:connector-curvature="0" /></g></g><g
       inkscape:groupmode="layer"
       id="layer2"
       inkscape:label="ICON"
       transform="matrix(0.75000002,0,0,-0.75000002,86.4634,207.0213)"
       style="display:inline"><g
         id="g20"
         transform="matrix(1.3333333,0,0,-1.3333333,46.555332,2.1073333)"
         style="display:inline"><path
           d="m 0,0 v -37.125 c 0,-4.336 3.516,-7.852 7.853,-7.852 4.336,0 7.852,3.516 7.852,7.852 V 0 Z"
           style="fill:#4699c2;fill-opacity:1;fill-rule:nonzero;stroke:none"
           id="path22"
           inkscape:connector-curvature="0" /></g><g
         id="g24"
         transform="matrix(1.3333333,0,0,-1.3333333,44.525332,60.857332)"
         style="display:inline"><path
           d="m 0,0 v 37.672 c 0,4.401 -3.567,7.971 -7.969,7.971 -4.4,0 -7.967,-3.57 -7.967,-7.971 V 0 Z"
           style="fill:#336b81;fill-opacity:1;fill-rule:nonzero;stroke:none"
           id="path26"
           inkscape:connector-curvature="0" /></g><g
         id="g28"
         transform="matrix(1.3333333,0,0,-1.3333333,21.248,60.857332)"
         style="display:inline"><path
           d="m 0,0 v 37.672 c 0,4.401 -3.567,7.971 -7.968,7.971 -4.401,0 -7.968,-3.57 -7.968,-7.971 V 0 Z"
           style="fill:#336b81;fill-opacity:1;fill-rule:nonzero;stroke:none"
           id="path30"
           inkscape:connector-curvature="0" /></g><g
         id="g2195"
         transform="matrix(0.24257475,0,0,0.24257475,241.77318,0.05660422)"><g
           id="layer1-5"
           inkscape:label="Lines"
           style="display:inline"><path
             inkscape:connector-curvature="0"
             d="m 308.645,165.738 124.93953,6.2e-4"
             style="fill:none;stroke:#336b81;stroke-width:5.24937;stroke-linecap:butt;stroke-linejoin:miter;stroke-miterlimit:4;stroke-dasharray:none;stroke-opacity:1"
             id="path18-5"
             transform="matrix(1.3333333,0,0,-1.3333333,0.31719999,256.33333)" /><path
             inkscape:connector-curvature="0"
             d="m 431.00936,25.096508 -5.4e-4,143.263772"
             style="fill:none;stroke:#336b81;stroke-width:5.24946;stroke-linecap:butt;stroke-linejoin:miter;stroke-miterlimit:4;stroke-dasharray:none;stroke-opacity:1"
             id="path18-5-2"
             transform="matrix(1.3333333,0,0,-1.3333333,0.31719999,256.33333)" /><path
             inkscape:connector-curvature="0"
             d="m 409.70669,27.700871 23.84234,0.0032"
             style="fill:none;stroke:#336b81;stroke-width:5.24676;stroke-linecap:butt;stroke-linejoin:miter;stroke-miterlimit:4;stroke-dasharray:none;stroke-opacity:1"
             id="path18-5-8"
             transform="matrix(1.3333333,0,0,-1.3333333,0.31719999,256.33333)" /><path
             inkscape:connector-curvature="0"
             d="m 114.137,27.625 h 24.332"
             style="fill:#4699c2;fill-opacity:1;stroke:#4699c2;stroke-width:5.25;stroke-linecap:butt;stroke-linejoin:miter;stroke-miterlimit:4;stroke-dasharray:none;stroke-opacity:1"
             id="path16-9"
             transform="matrix(1.3333333,0,0,-1.3333333,0.31719999,256.33333)" /><path
             inkscape:connector-curvature="0"
             d="M 95.7461,74.277 V 40.8121"
             style="fill:#4699c2;fill-opacity:1;stroke:#4699c2;stroke-width:5.25;stroke-linecap:square;stroke-linejoin:miter;stroke-miterlimit:4;stroke-dasharray:none;stroke-opacity:1"
             id="path22-2"
             transform="matrix(1.3333333,0,0,-1.3333333,0.31719999,256.33333)" /><path
             id="path30-2"
             style="fill:none;stroke:#336b81;stroke-width:5.25;stroke-linecap:butt;stroke-linejoin:miter;stroke-miterlimit:4;stroke-dasharray:none;stroke-opacity:1"
             d="m 114.5121,78.249999 31.5,-32.25"
             inkscape:connector-curvature="0"
             sodipodi:nodetypes="cc"
             transform="matrix(1.3333333,0,0,-1.3333333,0.31719999,256.33333)" /><path
             inkscape:connector-curvature="0"
             d="M 53.0121,27.625 H 74.934"
             style="fill:#4699c2;fill-opacity:1;stroke:#4699c2;stroke-width:5.25;stroke-linecap:butt;stroke-linejoin:miter;stroke-miterlimit:4;stroke-dasharray:none;stroke-opacity:1"
             id="path14"
             transform="matrix(1.3333333,0,0,-1.3333333,0.31719999,256.33333)" /><path
             id="path26-8"
             style="fill:none;stroke:#336b81;stroke-width:5.25;stroke-linecap:butt;stroke-linejoin:miter;stroke-miterlimit:4;stroke-dasharray:none;stroke-opacity:1"
             d="M 26.625,27.625 77.762102,78.999999"
             inkscape:connector-curvature="0"
             sodipodi:nodetypes="cc"
             transform="matrix(1.3333333,0,0,-1.3333333,0.31719999,256.33333)" /><path
             id="path20"
             style="fill:none;stroke:#336b81;stroke-width:5.25;stroke-linecap:butt;stroke-linejoin:miter;stroke-miterlimit:4;stroke-dasharray:none;stroke-opacity:1"
             d="M 26.625,75.3121 V 48.7148"
             inkscape:connector-curvature="0"
             transform="matrix(1.3333333,0,0,-1.3333333,0.31719999,256.33333)" /><path
             inkscape:connector-curvature="0"
             d="M 45.2109,96.625 H 71.809"
             style="fill:none;stroke:#336b81;stroke-width:5.25;stroke-linecap:butt;stroke-linejoin:miter;stroke-miterlimit:4;stroke-dasharray:none;stroke-opacity:1"
             id="path24"
             transform="matrix(1.3333333,0,0,-1.3333333,0.31719999,256.33333)" /><path
             id="path28"
             style="fill:none;stroke:#336b81;stroke-width:5.25;stroke-linecap:butt;stroke-linejoin:miter;stroke-miterlimit:4;stroke-dasharray:none;stroke-opacity:1"
             d="M 44.762101,147.25 77.012102,115"
             inkscape:connector-curvature="0"
             sodipodi:nodetypes="cc"
             transform="matrix(1.3333333,0,0,-1.3333333,0.31719999,256.33333)" /><path
             id="path18"
             style="fill:none;stroke:#336b81;stroke-width:5.25;stroke-linecap:butt;stroke-linejoin:miter;stroke-miterlimit:4;stroke-dasharray:none;stroke-opacity:1"
             d="M 26.625,144.461 V 117.867"
             inkscape:connector-curvature="0"
             transform="matrix(1.3333333,0,0,-1.3333333,0.31719999,256.33333)" /></g><g
           id="layer2-9"
           inkscape:label="cicles"
           style="display:inline"><path
             style="fill:#336b81;fill-opacity:1;fill-rule:nonzero;stroke:none;stroke-width:0.0999997"
             d="M 26.624405,192.25 C 11.921305,192.25 -5.9530617e-4,180.328 -5.9530617e-4,165.625 -5.9530617e-4,150.922 11.921305,139 26.624405,139 c 14.7031,0 26.625001,11.922 26.625001,26.625 0,14.703 -11.921901,26.625 -26.625001,26.625 z m 2.72754,-7.80762 c 1.518527,0 2.992018,-0.12721 4.419433,-0.38232 0.475805,-0.085 0.946428,-0.18398 1.41211,-0.29736 0.465682,-0.11339 0.926242,-0.24015 1.382812,-0.38086 0.912763,-0.28133 1.808187,-0.61856 2.685059,-1.00928 4.13e-4,-1.9e-4 10e-4,1.8e-4 0.0015,0 0.437939,-0.19523 0.871937,-0.40444 1.300781,-0.62695 3.93e-4,-2.1e-4 10e-4,2e-4 0.0015,0 v -7.50733 c -3.48e-4,2.4e-4 -0.0011,-2.4e-4 -0.0015,0 -0.432939,0.29537 -0.865015,0.57169 -1.294922,0.82764 -3.76e-4,2.2e-4 -0.0011,-2.3e-4 -0.0015,0 -0.430249,0.25612 -0.85892,0.49234 -1.286133,0.70898 -0.854855,0.43242 -1.703033,0.78505 -2.544434,1.06055 -1.262999,0.41325 -2.576241,0.67232 -3.940429,0.77637 -0.454546,0.0344 -0.915666,0.0527 -1.381348,0.0527 -0.834178,0 -1.623562,-0.067 -2.368652,-0.20068 -2.235273,-0.4009 -4.068464,-1.40376 -5.501953,-3.00733 -0.9551,-1.0685 -1.672491,-2.34051 -2.150391,-3.81445 -0.119475,-0.36849 -0.223854,-0.74877 -0.313477,-1.14258 -0.08974,-0.39424 -0.164321,-0.8006 -0.224121,-1.22022 -0.119518,-0.83825 -0.178711,-1.72651 -0.178711,-2.66601 0,-0.9355 0.05919,-1.82045 0.178711,-2.65576 0.119458,-0.83519 0.298683,-1.6205 0.537598,-2.35547 0.4779,-1.47008 1.195291,-2.7401 2.150391,-3.8086 0.477829,-0.53452 0.999001,-1.00242 1.565917,-1.40332 3.11e-4,-2.2e-4 0.0011,2.2e-4 0.0015,0 1.133602,-0.80138 2.444834,-1.33682 3.934571,-1.604 0.745091,-0.13363 1.534475,-0.20068 2.368652,-0.20068 0.465682,0 0.926802,0.0183 1.381348,0.0527 1.364188,0.10404 2.67743,0.36312 3.94043,0.77637 0.8414,0.2755 1.689579,0.62813 2.544433,1.06054 0.427556,0.21682 0.857001,0.45263 1.287598,0.70899 0.429907,0.25595 0.861983,0.53227 1.294922,0.82763 3.48e-4,2.4e-4 0.0011,-2.3e-4 0.0015,0 v -7.50732 c -3.92e-4,-2e-4 -0.001,2e-4 -0.0015,0 -0.429237,-0.22272 -0.863898,-0.43157 -1.302246,-0.62695 -0.876872,-0.39072 -1.772295,-0.72796 -2.685058,-1.00928 -0.456571,-0.14072 -0.917131,-0.26748 -1.382813,-0.38086 -0.465682,-0.11338 -0.936304,-0.21233 -1.41211,-0.29736 -1.427415,-0.25512 -2.900906,-0.38233 -4.419433,-0.38233 -3.294918,0 -6.213023,0.50383 -8.761231,1.50586 -0.08003,0.0314 -0.162409,0.0599 -0.241699,0.0923 -4.16e-4,1.7e-4 -10e-4,-1.7e-4 -0.0015,0 -0.289401,0.11833 -0.572945,0.24351 -0.852539,0.375 -0.279924,0.13179 -0.554618,0.26956 -0.824707,0.41455 -0.269784,0.14464 -0.533977,0.2963 -0.793946,0.4541 -1.039876,0.6312 -2.001577,1.36723 -2.884277,2.20898 -1.985911,1.90476 -3.412673,4.18985 -4.281739,6.85254 -0.676285,2.07205 -1.015136,4.37243 -1.015136,6.90235 0,2.8985 0.441413,5.49389 1.324219,7.78564 2.3e-4,6e-4 0.0012,9e-4 0.0015,0.001 0.110115,0.2859 0.226246,0.56731 0.350098,0.84375 2.67e-4,6e-4 0.0012,9e-4 0.0015,0.001 0.372256,0.83027 0.806019,1.6179 1.302246,2.36279 3.77e-4,5.7e-4 0.0011,9e-4 0.0015,0.001 0.165141,0.24797 0.336752,0.49098 0.515625,0.7295 4.11e-4,5.4e-4 0.0011,9e-4 0.0015,0.001 0.178902,0.23849 0.364008,0.47261 0.556641,0.70166 4.42e-4,5.2e-4 10e-4,9.7e-4 0.0015,0.001 0.192429,0.22874 0.392994,0.45304 0.599121,0.67236 7.07e-4,7.5e-4 7.5e-4,0.002 0.0015,0.003 0.206192,0.2193 0.420245,0.43318 0.640137,0.64306 7.5e-4,7.2e-4 7.1e-4,0.002 0.0015,0.003 0.220192,0.2111 0.445337,0.41436 0.675292,0.6123 5.22e-4,4.5e-4 9.75e-4,0.001 0.0015,0.001 0.229978,0.19791 0.464849,0.38948 0.70459,0.57422 5.4e-4,4.2e-4 9e-4,0.001 0.0015,0.002 0.239766,0.18472 0.484357,0.36312 0.733886,0.53467 5.56e-4,3.8e-4 9e-4,0.001 0.0015,0.002 0.499683,0.34344 1.019768,0.66002 1.558595,0.95068 5.74e-4,3.1e-4 9e-4,0.001 0.0015,0.001 0.538898,0.29063 1.097734,0.55318 1.675781,0.79102 5.78e-4,2.4e-4 9e-4,10e-4 0.0015,10e-4 0.289343,0.11901 0.582686,0.23112 0.881836,0.33691 2.393199,0.84633 5.100237,1.27002 8.121094,1.27002 z"
             id="path34-7"
             transform="matrix(1.3333333,0,0,-1.3333333,0.31719999,256.33333)" /><path
             id="path38-3"
             style="fill:#336b81;fill-opacity:1;fill-rule:nonzero;stroke:none;stroke-width:0.1"
             d="M 53.25,96.625 C 53.25,81.9219 41.3281,70 26.625,70 11.9219,70 0,81.9219 0,96.625 c 0,14.703 11.9219,26.625 26.625,26.625 14.7031,0 26.625,-11.922 26.625,-26.625 z"
             inkscape:connector-curvature="0"
             transform="matrix(1.3333333,0,0,-1.3333333,0.31719999,256.33333)" /><path
             id="path40-6"
             style="fill:#336b81;fill-opacity:1;fill-rule:nonzero;stroke:none;stroke-width:0.1"
             d="M 53.0121,27.625 C 53.0121,12.9219 41.0902,1 26.3871,1 11.684,1 -0.2379,12.9219 -0.2379,27.625 c 0,14.7031 11.9219,26.625 26.625,26.625 14.7031,0 26.625,-11.9219 26.625,-26.625 z"
             inkscape:connector-curvature="0"
             transform="matrix(1.3333333,0,0,-1.3333333,0.31719999,256.33333)" /><path
             inkscape:connector-curvature="0"
             d="m 163.3172,219.5 c 0,19.60413 -15.896,35.5 -35.5,35.5 -19.60414,0 -35.500002,-15.89587 -35.500002,-35.5 0,-19.60414 15.895862,-35.5 35.500002,-35.5 19.604,0 35.5,15.89586 35.5,35.5 z"
             style="fill:#4699c2;fill-opacity:1;fill-rule:nonzero;stroke:none;stroke-width:0.133333"
             id="path44-1" /><path
             style="fill:#336b81;fill-opacity:1;fill-rule:nonzero;stroke:none;stroke-width:0.133333"
             d="m 127.81641,92.000001 c -19.60414,0 -35.500004,15.895999 -35.500004,35.499999 0,19.60413 15.895864,35.5 35.500004,35.5 19.604,0 35.5,-15.89587 35.5,-35.5 0,-19.604 -15.896,-35.499999 -35.5,-35.499999 z m -21.67188,11.316409 h 13.92774 0.002 l 17.59181,33.17382 v -33.17382 h 11.82225 0.003 v 48.36718 h -0.003 -13.92577 -0.003 l -8.79427,-16.58593 -8.79687,-16.58399 v 33.16992 h -0.002 -11.82227 z"
             id="path42" /><path
             style="fill:#336b81;fill-opacity:1;fill-rule:nonzero;stroke:none;stroke-width:0.133333"
             d="m 219.81641,184 c -19.604,0 -35.5,15.89587 -35.5,35.5 0,19.60413 15.896,35.5 35.5,35.5 19.604,0 35.5,-15.89587 35.5,-35.5 0,-19.60413 -15.896,-35.5 -35.5,-35.5 z m -1.00391,10.41016 c 1.32821,0 2.67501,0.0517 4.04101,0.15429 1.366,0.10259 2.75246,0.25577 4.15626,0.46094 2.63193,0.36442 5.35154,0.9156 8.15429,1.64063 0.18705,0.0484 0.37077,0.0906 0.5586,0.14062 6.1e-4,1.6e-4 0.001,-1.6e-4 0.001,0 v 10.23438 c -5.6e-4,-2.5e-4 -0.001,2.4e-4 -0.001,0 v 0.004 c -1.32821,-0.59391 -2.63975,-1.11632 -3.93555,-1.56445 -0.64852,-0.22428 -1.29318,-0.42942 -1.9336,-0.61719 -0.63928,-0.18721 -1.27356,-0.35689 -1.90429,-0.50781 -6.3e-4,-1.5e-4 -0.001,1.5e-4 -0.001,0 -0.63104,-0.15115 -1.25387,-0.28305 -1.86719,-0.39649 -6.5e-4,-1.1e-4 -0.001,1.2e-4 -0.001,0 -0.0825,-0.0153 -0.16183,-0.0245 -0.24415,-0.0391 -1.13996,-0.20173 -2.25297,-0.34551 -3.33203,-0.41601 -6.6e-4,-5e-5 -0.001,4e-5 -0.001,0 -0.57907,-0.0378 -1.14943,-0.0566 -1.71095,-0.0566 -0.74508,0 -1.44193,0.0268 -2.08984,0.0781 -0.64836,0.0515 -1.24806,0.12773 -1.79882,0.23047 -0.82526,0.15385 -1.5415,0.36569 -2.14844,0.63476 -0.20222,0.0895 -0.39248,0.18496 -0.57031,0.28711 -7.3e-4,4.2e-4 -0.001,0.002 -0.003,0.002 -0.53452,0.30775 -0.96866,0.67797 -1.30274,1.11328 -2.8e-4,3.8e-4 3e-4,0.002 0,0.002 -0.11094,0.14471 -0.21196,0.29628 -0.30078,0.45508 -0.17817,0.31855 -0.3113,0.66577 -0.40038,1.04102 -0.0891,0.37524 -0.1328,0.779 -0.1328,1.21093 0,0.29234 0.0317,0.56632 0.0801,0.83008 0.005,0.0279 0.001,0.0603 0.008,0.0879 1.2e-4,6.1e-4 -1.2e-4,0.001 0,0.002 0.0296,0.14385 0.0669,0.28284 0.11133,0.41796 0.0133,0.0389 0.0289,0.0751 0.0431,0.11328 0.1324,0.36193 0.31649,0.69311 0.55859,0.99024 0.17817,0.21867 0.38744,0.41994 0.625,0.60352 0.24296,0.17817 0.5329,0.34959 0.87305,0.51562 0.33981,0.16609 0.7286,0.32641 1.16601,0.48047 6.3e-4,2.2e-4 10e-4,-2.2e-4 10e-4,0 0.87466,0.30775 1.94361,0.59044 3.20702,0.84961 l 5.31251,1.07031 c 0.52355,0.10513 1.01959,0.22016 1.51367,0.33594 0.14028,0.0329 0.29178,0.062 0.42969,0.0957 5.9e-4,1.5e-4 0.001,-1.4e-4 0.001,0 0.16752,0.041 0.3184,0.0886 0.48242,0.13086 1.05637,0.27211 2.05396,0.56403 2.96485,0.88867 0.52625,0.18742 1.02817,0.38289 1.50585,0.58789 0.47866,0.20547 0.93142,0.41952 1.36132,0.64258 0.68188,0.35372 1.28468,0.73665 1.84376,1.13477 0.14455,0.10293 0.30312,0.20074 0.43946,0.30664 4e-4,3.1e-4 0.003,-3.2e-4 0.003,0 0.33138,0.25746 0.63711,0.52383 0.91992,0.79883 6.4e-4,6.2e-4 0.001,0.001 0.003,0.002 0.28309,0.27474 0.54911,0.56355 0.79688,0.86719 3.1e-4,3.7e-4 -2.9e-4,0.002 0,0.002 0.24799,0.30398 0.4788,0.62213 0.69141,0.95508 2.8e-4,4.4e-4 -2.9e-4,10e-4 0,0.002 0.21254,0.33296 0.40878,0.67909 0.58594,1.04102 2.4e-4,5.1e-4 -2.6e-4,0.001 0,0.002 0.88653,1.8119 1.33008,3.98713 1.33008,6.52539 0,2.001 -0.22468,3.80945 -0.67188,5.42773 -0.29776,1.07751 -0.69342,2.07068 -1.18946,2.97852 -4.1e-4,7.5e-4 -0.003,0.001 -0.003,0.002 -0.24787,0.4534 -0.51907,0.88582 -0.81642,1.29688 -0.29805,0.41248 -0.62089,0.80206 -0.96874,1.17187 -0.34751,0.36931 -0.72003,0.71809 -1.11719,1.04492 -0.165,0.1359 -0.35313,0.25408 -0.52735,0.38282 -0.65737,0.48579 -1.36205,0.93431 -2.15038,1.31836 -1.56056,0.76022 -3.38635,1.31396 -5.45899,1.67773 -1.90183,0.3338 -4.00881,0.50781 -6.3418,0.50781 -3.06675,0 -6.14603,-0.29188 -9.23436,-0.875 -0.63783,-0.12042 -1.27431,-0.25992 -1.91212,-0.40429 -0.13419,-0.0303 -0.26815,-0.0546 -0.40235,-0.0859 -6.1e-4,-1.4e-4 -0.001,1.4e-4 -0.001,0 -0.77153,-0.18031 -1.54285,-0.37847 -2.31445,-0.59375 -6e-4,-1.7e-4 -0.001,1.7e-4 -0.001,0 -0.7716,-0.21531 -1.54288,-0.45062 -2.31444,-0.70117 -5.8e-4,-1.9e-4 -0.001,1.9e-4 -0.003,0 -0.77216,-0.25077 -1.54442,-0.51836 -2.31642,-0.80469 v -10.53125 c 7.9e-4,4.2e-4 0.001,0.002 0.001,0.002 1.54318,0.82035 3.06085,1.54105 4.55077,2.16211 1.49019,0.62091 2.95444,1.14136 4.39064,1.5625 0.72348,0.20517 1.44039,0.38519 2.15039,0.53907 1.41998,0.30775 2.81173,0.51264 4.17773,0.61523 6.4e-4,5e-5 0.001,-5e-5 0.003,0 0.68232,0.0512 1.35848,0.0781 2.02733,0.0781 0.67961,0 1.31979,-0.0294 1.91992,-0.0859 0.35584,-0.0336 0.69363,-0.0793 1.02149,-0.13282 0.50288,-0.082 0.97691,-0.18569 1.41406,-0.31445 0.15912,-0.0469 0.30664,-0.10123 0.45704,-0.1543 0.17602,-0.0621 0.34562,-0.12866 0.50976,-0.19921 0.11893,-0.0512 0.24281,-0.0987 0.35548,-0.1543 8e-4,-4e-4 0.001,-0.002 0.001,-0.002 0.19996,-0.0988 0.39008,-0.20354 0.57031,-0.31641 7.8e-4,-5e-4 0.001,-0.001 0.001,-0.002 0.36175,-0.22677 0.67791,-0.47855 0.94921,-0.75391 0.13532,-0.13732 0.26024,-0.28028 0.37306,-0.42969 3.3e-4,-4.4e-4 -3.4e-4,-0.002 0,-0.002 0.0737,-0.0977 0.13514,-0.20187 0.19922,-0.30469 0.0343,-0.0551 0.0759,-0.10558 0.10747,-0.16211 0.36175,-0.6479 0.54103,-1.3921 0.54103,-2.23437 0,-6.9e-4 0,-0.001 0,-0.002 0,-0.37763 -0.03,-0.73375 -0.0917,-1.06835 -0.0621,-0.33476 -0.15512,-0.6479 -0.2793,-0.93946 -0.18591,-0.43648 -0.44251,-0.82439 -0.76758,-1.16406 -6.2e-4,-6.6e-4 -0.001,-0.001 -0.003,-0.002 -0.108,-0.11274 -0.22428,-0.22022 -0.34767,-0.32227 -6.4e-4,-5.5e-4 -0.001,-0.001 -0.001,-0.002 -0.12147,-0.10259 -0.25796,-0.20285 -0.41015,-0.30274 -0.45689,-0.29999 -1.05108,-0.58816 -1.78321,-0.86328 -5.2e-4,-1.9e-4 -10e-4,2e-4 -10e-4,0 -0.9773,-0.36711 -2.19929,-0.71195 -3.66797,-1.03515 L 216.81146,224 l -2.11133,-0.4668 c -1.21036,-0.25936 -2.33859,-0.55811 -3.38672,-0.89453 -0.52294,-0.16771 -1.02724,-0.34437 -1.50978,-0.53125 -8.1e-4,-3.2e-4 -0.001,-0.002 -0.001,-0.002 -0.48239,-0.18689 -0.94471,-0.38186 -1.38672,-0.58789 -8.1e-4,-3.8e-4 -0.001,-0.002 -0.001,-0.002 -0.44187,-0.20603 -0.86412,-0.42132 -1.26563,-0.64648 -8e-4,-4.5e-4 -0.001,-10e-4 -0.003,-0.002 -0.40217,-0.22562 -0.78286,-0.46028 -1.14453,-0.70508 -0.36217,-0.24528 -0.70381,-0.49911 -1.02539,-0.76367 -0.32116,-0.26398 -0.62168,-0.53718 -0.90234,-0.82032 -0.278,-0.28398 -0.5379,-0.5803 -0.78124,-0.88867 -0.48672,-0.61673 -0.90402,-1.28154 -1.25196,-1.99609 -0.86988,-1.78638 -1.30664,-3.87958 -1.30664,-6.28125 0,-3.01175 0.60846,-5.58696 1.82421,-7.72852 4.5e-4,-7.8e-4 0.001,-0.001 0.001,-0.002 0.48627,-0.85612 1.06983,-1.64204 1.75,-2.35937 0.33992,-0.35849 0.70351,-0.70154 1.0918,-1.02539 4e-4,-3.4e-4 10e-4,3.3e-4 10e-4,0 0.77736,-0.64826 1.63854,-1.2156 2.58594,-1.70118 1.42183,-0.72914 3.03508,-1.27422 4.83984,-1.63867 1.80352,-0.3642 3.79844,-0.54687 5.98438,-0.54687 z"
             id="path36" /></g><g
           id="layer3-2"
           inkscape:label="text"
           style="display:inline"><path
             inkscape:connector-curvature="0"
             d="m 98.254664,31.202669 c -2.568133,0 -4.535866,0.928 -5.896266,2.786667 -1.338534,1.833333 -2.010534,4.489333 -2.010534,7.969333 0,3.473333 0.672,6.14 2.010534,7.999999 1.3604,1.838667 3.328133,2.754667 5.896266,2.754667 2.526536,0 4.458396,-0.916 5.797466,-2.754667 1.33853,-1.859999 2.0104,-4.526666 2.0104,-7.999999 0,-3.48 -0.67187,-6.136 -2.0104,-7.969333 -1.33907,-1.858667 -3.27093,-2.786667 -5.797466,-2.786667 z m 0,-8.296 c 6.239596,0 11.109466,1.686667 14.609466,5.057333 3.52133,3.369334 5.2812,8.030667 5.2812,13.994667 0,5.958666 -1.75987,10.625333 -5.2812,13.994666 -3.5,3.369333 -8.36987,5.052 -14.609466,5.052 -6.2656,0 -11.166666,-1.682667 -14.708266,-5.052 -3.521333,-3.369333 -5.281333,-8.036 -5.281333,-13.994666 0,-5.964 1.76,-10.625333 5.281333,-13.994667 3.5416,-3.370666 8.442666,-5.057333 14.708266,-5.057333 z"
             style="fill:#4699c2;fill-opacity:1;fill-rule:nonzero;stroke:none;stroke-width:0.133333"
             id="path62-9" /><path
             inkscape:connector-curvature="0"
             d="m 163.0772,37.973335 v 22.094667 h -11.66134 v -16.912 c 0,-3.129333 -0.0773,-5.292 -0.22933,-6.478667 -0.12933,-1.187999 -0.364,-2.062666 -0.71333,-2.625333 -0.45334,-0.754666 -1.068,-1.338666 -1.844,-1.749333 -0.776,-0.433333 -1.66134,-0.646667 -2.656,-0.646667 -2.42134,0 -4.31734,0.937334 -5.70267,2.817334 -1.38,1.859999 -2.07333,4.438666 -2.07333,7.745333 V 60.068002 H 126.5984 V 23.781336 h 11.5988 v 5.312 c 1.75066,-2.114667 3.60933,-3.666667 5.57333,-4.661334 1.96267,-1.016 4.13467,-1.525333 6.51067,-1.525333 4.192,0 7.364,1.286667 9.52533,3.858667 2.18267,2.568 3.27067,6.302666 3.27067,11.207999 z"
             style="fill:#4699c2;fill-opacity:1;fill-rule:nonzero;stroke:none;stroke-width:0.133333"
             id="path64-3" /><path
             inkscape:connector-curvature="0"
             d="m 186.56253,13.478669 v 10.302667 h 11.95733 v 8.297333 h -11.95733 v 15.385333 c 0,1.686667 0.33867,2.828 1.00533,3.432 0.67067,0.582666 2,0.874666 3.984,0.874666 h 5.96267 v 8.297334 h -9.94667 c -4.57866,0 -7.82933,-0.953334 -9.75066,-2.854667 -1.90134,-1.921333 -2.84934,-5.172 -2.84934,-9.749333 V 32.078669 h -5.76533 v -8.297333 h 5.76533 V 13.478669 Z"
             style="fill:#4699c2;fill-opacity:1;fill-rule:nonzero;stroke:none;stroke-width:0.133333"
             id="path66" /><path
             inkscape:connector-curvature="0"
             d="m 232.59853,33.661336 c -1.016,-0.473334 -2.03067,-0.817334 -3.04667,-1.036 -0.99467,-0.234667 -1.99467,-0.354667 -3.01067,-0.354667 -2.984,0 -5.28133,0.964 -6.90133,2.885333 -1.59867,1.901333 -2.396,4.630667 -2.396,8.193333 V 60.068002 H 205.64519 V 23.781336 h 11.59867 v 5.964 c 1.48933,-2.376 3.19333,-4.105334 5.11467,-5.182667 1.948,-1.104 4.26533,-1.656 6.96933,-1.656 0.38533,0 0.80667,0.02533 1.26,0.06667 0.45333,0.02133 1.11467,0.08933 1.98,0.193333 z"
             style="fill:#4699c2;fill-opacity:1;fill-rule:nonzero;stroke:none;stroke-width:0.133333"
             id="path68-1" /><path
             inkscape:connector-curvature="0"
             d="m 255.69719,31.202669 c -2.57333,0 -4.536,0.928 -5.896,2.786667 -1.33866,1.833333 -2.01066,4.489333 -2.01066,7.969333 0,3.473333 0.672,6.14 2.01066,7.999999 1.36,1.838667 3.32267,2.754667 5.896,2.754667 2.52667,0 4.45867,-0.916 5.79734,-2.754667 1.33866,-1.859999 2.01066,-4.526666 2.01066,-7.999999 0,-3.48 -0.672,-6.136 -2.01066,-7.969333 -1.33867,-1.858667 -3.27067,-2.786667 -5.79734,-2.786667 z m 0,-8.296 c 6.24,0 11.10934,1.686667 14.60934,5.057333 3.52133,3.369334 5.28133,8.030667 5.28133,13.994667 0,5.958666 -1.76,10.625333 -5.28133,13.994666 -3.5,3.369333 -8.36934,5.052 -14.60934,5.052 -6.26533,0 -11.16666,-1.682667 -14.708,-5.052 -3.52133,-3.369333 -5.28133,-8.036 -5.28133,-13.994666 0,-5.964 1.76,-10.625333 5.28133,-13.994667 3.54134,-3.370666 8.44267,-5.057333 14.708,-5.057333 z"
             style="fill:#4699c2;fill-opacity:1;fill-rule:nonzero;stroke:none;stroke-width:0.133333"
             id="path70" /><path
             inkscape:connector-curvature="0"
             d="m 284.04119,60.068002 h 11.59896 V 9.6612028 h -11.59896 z"
             style="fill:#4699c2;fill-opacity:1;fill-rule:nonzero;stroke:none;stroke-width:0.133333"
             id="path72-9" /><path
             inkscape:connector-curvature="0"
             d="m 347.18119,31.202669 c -2.572,0 -4.536,0.928 -5.89467,2.786667 -1.344,1.833333 -2.01066,4.489333 -2.01066,7.969333 0,3.473333 0.66666,6.14 2.01066,7.999999 1.35867,1.838667 3.32267,2.754667 5.89467,2.754667 2.52667,0 4.45867,-0.916 5.79733,-2.754667 1.33867,-1.859999 2.01067,-4.526666 2.01067,-7.999999 0,-3.48 -0.672,-6.136 -2.01067,-7.969333 -1.33866,-1.858667 -3.27066,-2.786667 -5.79733,-2.786667 z m 0,-8.296 c 6.24,0 11.10933,1.686667 14.60933,5.057333 3.52134,3.369334 5.28134,8.030667 5.28134,13.994667 0,5.958666 -1.76,10.625333 -5.28134,13.994666 -3.5,3.369333 -8.36933,5.052 -14.60933,5.052 -6.26533,0 -11.16667,-1.682667 -14.708,-5.052 -3.52,-3.369333 -5.28133,-8.036 -5.28133,-13.994666 0,-5.964 1.76133,-10.625333 5.28133,-13.994667 3.54133,-3.370666 8.44267,-5.057333 14.708,-5.057333 z"
             style="fill:#4699c2;fill-opacity:1;fill-rule:nonzero;stroke:none;stroke-width:0.133333"
             id="path74" /><path
             inkscape:connector-curvature="0"
             d="m 399.39986,9.6613362 v 7.6093328 h -6.41067 c -1.64533,0 -2.78667,0.302667 -3.43733,0.906667 -0.64667,0.582667 -0.96934,1.609333 -0.96934,3.077333 v 2.526667 h 9.912 v 8.297333 h -9.912 V 60.068002 H 376.98386 V 32.078669 h -5.76534 v -8.297333 h 5.76534 v -2.526667 c 0,-3.952 1.09866,-6.864 3.30266,-8.744 2.20267,-1.901333 5.61467,-2.8493328 10.23867,-2.8493328 z"
             style="fill:#4699c2;fill-opacity:1;fill-rule:nonzero;stroke:none;stroke-width:0.133333"
             id="path76-4" /><path
             inkscape:connector-curvature="0"
             d="m 209.30653,134.0412 v 3.30827 h -27.11467 c 0.28134,2.7188 1.26534,4.75986 2.948,6.11986 1.68267,1.364 4.03734,2.04107 7.06267,2.04107 2.44267,0 4.932,-0.35413 7.484,-1.06773 2.568,-0.7348 5.204,-1.83334 7.90133,-3.30254 v 8.93854 c -2.74,1.03586 -5.484,1.8172 -8.224,2.33333 -2.744,0.54107 -5.48933,0.812 -8.22933,0.812 -6.56667,0 -11.67733,-1.66667 -15.32267,-4.98907 -3.63066,-3.34946 -5.44266,-8.0376 -5.44266,-14.06306 0,-5.9172 1.78133,-10.56774 5.344,-13.96387 3.58266,-3.39067 8.51066,-5.08267 14.77066,-5.08267 5.70267,0 10.26,1.71867 13.672,5.15067 3.432,3.43187 5.15067,8.02133 5.15067,13.7652 z M 197.3852,130.188 c 0,-2.20413 -0.64667,-3.9744 -1.94267,-5.31347 -1.276,-1.3584 -2.948,-2.0412 -5.02133,-2.0412 -2.244,0 -4.07334,0.64014 -5.47334,1.912 -1.40666,1.25467 -2.28133,3.06667 -2.62533,5.44267 z"
             style="fill:#4699c2;fill-opacity:1;fill-rule:nonzero;stroke:none;stroke-width:0.133333"
             id="path78" /><path
             inkscape:connector-curvature="0"
             d="M 230.71853,105.69733 V 116 h 11.95866 v 8.29213 h -11.95866 v 15.39067 c 0,1.6812 0.33866,2.8276 1.00533,3.43173 0.672,0.5828 2,0.87507 3.984,0.87507 h 5.964 v 8.2916 h -9.948 c -4.57867,0 -7.828,-0.94787 -9.75067,-2.84947 -1.90133,-1.92133 -2.84933,-5.17186 -2.84933,-9.74893 v -15.39067 h -5.76533 V 116 h 5.76533 v -10.30267 z"
             style="fill:#4699c2;fill-opacity:1;fill-rule:nonzero;stroke:none;stroke-width:0.133333"
             id="path80-7" /><path
             inkscape:connector-curvature="0"
             d="m 246.56253,116 h 11.27066 l 6.09334,25.0104 6.12,-25.0104 h 9.68666 l 6.08934,24.74947 L 291.94786,116 h 11.276 l -9.55733,36.2812 h -12.66667 l -6.12533,-24.94267 -6.088,24.94267 h -12.66667 z"
             style="fill:#4699c2;fill-opacity:1;fill-rule:nonzero;stroke:none;stroke-width:0.133333"
             id="path82" /><path
             inkscape:connector-curvature="0"
             d="m 328.35853,123.41613 c -2.568,0 -4.536,0.93334 -5.896,2.78654 -1.33867,1.83853 -2.00934,4.49466 -2.00934,7.9692 0,3.47866 0.67067,6.14533 2.00934,8.0052 1.36,1.83333 3.328,2.74946 5.896,2.74946 2.52666,0 4.45866,-0.91613 5.80266,-2.74946 1.33867,-1.85987 2.00533,-4.52654 2.00533,-8.0052 0,-3.47454 -0.66666,-6.13067 -2.00533,-7.9692 -1.344,-1.8532 -3.276,-2.78654 -5.80266,-2.78654 z m 0,-8.2908 c 6.24533,0 11.11466,1.68134 14.60933,5.052 3.52133,3.3696 5.28133,8.03627 5.28133,13.99454 0,5.96413 -1.76,10.62546 -5.28133,13.9948 -3.49467,3.36933 -8.364,5.05733 -14.60933,5.05733 -6.26,0 -11.16667,-1.688 -14.708,-5.05733 -3.52134,-3.36934 -5.28134,-8.03067 -5.28134,-13.9948 0,-5.95827 1.76,-10.62494 5.28134,-13.99454 3.54133,-3.37066 8.448,-5.052 14.708,-5.052 z"
             style="fill:#4699c2;fill-opacity:1;fill-rule:nonzero;stroke:none;stroke-width:0.133333"
             id="path84-8" /><path
             inkscape:connector-curvature="0"
             d="m 383.65586,125.88027 c -1.01067,-0.47347 -2.02667,-0.82294 -3.04134,-1.03654 -0.99466,-0.2396 -2,-0.35413 -3.016,-0.35413 -2.97866,0 -5.276,0.95827 -6.896,2.87973 -1.59866,1.90147 -2.40133,4.63587 -2.40133,8.19894 V 152.2812 H 356.70786 V 116 h 11.59333 v 5.95867 c 1.48933,-2.37467 3.19867,-4.09867 5.12,-5.18267 1.94267,-1.09867 4.26533,-1.65067 6.964,-1.65067 0.39067,0 0.812,0.02 1.26533,0.0627 0.45334,0.0253 1.10934,0.088 1.97334,0.19733 z"
             style="fill:#4699c2;fill-opacity:1;fill-rule:nonzero;stroke:none;stroke-width:0.133333"
             id="path86" /><path
             inkscape:connector-curvature="0"
             d="m 389.48919,101.87467 h 11.59867 V 129.312 L 414.43186,116 h 13.47866 l -17.71866,16.65053 19.10933,19.63067 h -14.05733 l -14.156,-15.12493 v 15.12493 h -11.59867 z"
             style="fill:#4699c2;fill-opacity:1;fill-rule:nonzero;stroke:none;stroke-width:0.133333"
             id="path88-4" /><path
             inkscape:connector-curvature="0"
             d="m 468.08252,134.0412 v 3.30827 h -27.12 c 0.28134,2.7188 1.26667,4.75986 2.948,6.11986 1.688,1.364 4.04267,2.04107 7.06267,2.04107 2.44267,0 4.93733,-0.35413 7.484,-1.06773 2.57333,-0.7348 5.20933,-1.83334 7.90667,-3.30254 v 8.93854 c -2.744,1.03586 -5.484,1.8172 -8.22934,2.33333 -2.744,0.54107 -5.484,0.812 -8.22933,0.812 -6.56133,0 -11.67067,-1.66667 -15.32267,-4.98907 -3.62533,-3.34946 -5.44266,-8.0376 -5.44266,-14.06306 0,-5.9172 1.78133,-10.56774 5.34933,-13.96387 3.58267,-3.39067 8.50533,-5.08267 14.77067,-5.08267 5.69733,0 10.25466,1.71867 13.672,5.15067 3.432,3.43187 5.15066,8.02133 5.15066,13.7652 z m -11.92133,-3.8532 c 0,-2.20413 -0.65067,-3.9744 -1.948,-5.31347 -1.27067,-1.3584 -2.948,-2.0412 -5.02133,-2.0412 -2.244,0 -4.068,0.64014 -5.47334,1.912 -1.40133,1.25467 -2.276,3.06667 -2.62533,5.44267 z"
             style="fill:#4699c2;fill-opacity:1;fill-rule:nonzero;stroke:none;stroke-width:0.133333"
             id="path90" /><path
             inkscape:connector-curvature="0"
             d="m 501.51052,121.312 v -19.43733 h 11.66667 v 50.40653 h -11.66667 v -5.2452 c -1.59467,2.13587 -3.35467,3.70413 -5.276,4.6932 -1.92267,0.9948 -4.152,1.4948 -6.67733,1.4948 -4.46934,0 -8.14134,-1.77093 -11.01067,-5.312 -2.87467,-3.56827 -4.312,-8.14693 -4.312,-13.74013 0,-5.5932 1.43733,-10.16147 4.312,-13.70254 2.86933,-3.56266 6.54133,-5.344 11.01067,-5.344 2.50533,0 4.71866,0.50534 6.64,1.52 1.948,0.99467 3.71866,2.552 5.31333,4.66667 z m -7.64133,23.48533 c 2.47866,0 4.36933,-0.90666 5.66666,-2.71866 1.31734,-1.8136 1.97467,-4.448 1.97467,-7.9068 0,-3.45307 -0.65733,-6.08907 -1.97467,-7.90107 -1.29733,-1.81773 -3.188,-2.72387 -5.66666,-2.72387 -2.464,0 -4.35467,0.90614 -5.672,2.72387 -1.296,1.812 -1.94267,4.448 -1.94267,7.90107 0,3.4588 0.64667,6.0932 1.94267,7.9068 1.31733,1.812 3.208,2.71866 5.672,2.71866 z"
             style="fill:#4699c2;fill-opacity:1;fill-rule:nonzero;stroke:none;stroke-width:0.133333"
             id="path92-5" /><path
             inkscape:connector-curvature="0"
             d="m 262.43719,204.4016 h 11.59867 l 9.75067,24.61973 8.29066,-24.61973 h 11.6 l -15.26133,39.71298 c -1.53067,4.04167 -3.32267,6.85886 -5.37467,8.45886 -2.03066,1.61978 -4.71866,2.42656 -8.068,2.42656 h -6.70266 v -7.61459 h 3.62533 c 1.968,0 3.39067,-0.31197 4.276,-0.93749 0.90533,-0.625 1.60933,-1.75052 2.10933,-3.36928 l 0.32267,-1.00518 z"
             style="fill:#4699c2;fill-opacity:1;fill-rule:nonzero;stroke:none;stroke-width:0.133333"
             id="path94" /><path
             inkscape:connector-curvature="0"
             d="m 338.82252,205.53066 v 8.81307 c -2.47866,-1.03693 -4.88,-1.81307 -7.18799,-2.33333 -2.312,-0.5156 -4.49467,-0.77547 -6.54667,-0.77547 -2.20267,0 -3.844,0.2812 -4.92133,0.84373 -1.05734,0.53587 -1.58934,1.38014 -1.58934,2.52547 0,0.92653 0.40134,1.6412 1.19867,2.136 0.82267,0.5 2.28133,0.864 4.37467,1.1036 l 2.04133,0.29227 c 5.93733,0.75466 9.932,1.99466 11.98533,3.72386 2.052,1.72814 3.07733,4.43747 3.07733,8.12974 0,3.86506 -1.42666,6.77026 -4.276,8.71306 -2.84933,1.94787 -7.10399,2.91707 -12.76533,2.91707 -2.396,0 -4.88,-0.1932 -7.448,-0.58373 -2.552,-0.36414 -5.172,-0.92667 -7.87466,-1.68134 v -8.81346 c 2.312,1.12546 4.67733,1.964 7.09333,2.52706 2.44267,0.5624 4.91733,0.84374 7.42133,0.84374 2.26667,0 3.97467,-0.3136 5.12,-0.94267 1.14134,-0.6256 1.71334,-1.5532 1.71334,-2.78133 0,-1.03747 -0.39467,-1.80774 -1.19734,-2.30254 -0.776,-0.52146 -2.344,-0.91613 -4.69733,-1.19746 l -2.04267,-0.26147 c -5.16133,-0.64533 -8.776,-1.84267 -10.848,-3.5932 -2.07333,-1.75053 -3.10933,-4.4068 -3.10933,-7.96933 0,-3.84787 1.31733,-6.69734 3.94667,-8.552 2.636,-1.85894 6.67733,-2.78547 12.12,-2.78547 2.136,0 4.38,0.16147 6.73466,0.48387 2.35467,0.32293 4.91733,0.83333 7.67733,1.52026 z"
             style="fill:#4699c2;fill-opacity:1;fill-rule:nonzero;stroke:none;stroke-width:0.133333"
             id="path96-0" /><path
             inkscape:connector-curvature="0"
             d="m 362.66652,194.0984 v 10.3032 h 11.95334 v 8.2916 h -11.95334 v 15.38546 c 0,1.6864 0.33867,2.82814 1.00534,3.43747 0.672,0.58227 2,0.87453 3.984,0.87453 h 5.964 v 8.29214 h -9.948 c -4.57867,0 -7.828,-0.9536 -9.75067,-2.85467 -1.90133,-1.92133 -2.84933,-5.17187 -2.84933,-9.74947 V 212.6932 h -5.77067 v -8.2916 h 5.77067 v -10.3032 z"
             style="fill:#4699c2;fill-opacity:1;fill-rule:nonzero;stroke:none;stroke-width:0.133333"
             id="path98" /><path
             inkscape:connector-curvature="0"
             d="m 417.96786,222.44266 v 3.30267 h -27.11467 c 0.28133,2.724 1.26133,4.76507 2.948,6.124 1.68267,1.35987 4.03733,2.04267 7.06267,2.04267 2.43733,0 4.932,-0.35987 7.48,-1.06827 2.572,-0.7344 5.208,-1.83853 7.90533,-3.30773 v 8.94266 c -2.744,1.03747 -5.484,1.81347 -8.22933,2.33334 -2.73867,0.53746 -5.484,0.80773 -8.22934,0.80773 -6.56133,0 -11.67066,-1.66093 -15.32266,-4.98907 -3.624,-3.34426 -5.44267,-8.03226 -5.44267,-14.0572 0,-5.9172 1.78133,-10.57346 5.34933,-13.96413 3.58267,-3.39053 8.50534,-5.0828 14.77067,-5.0828 5.70267,0 10.26,1.7136 13.672,5.15053 3.432,3.43227 5.15067,8.02027 5.15067,13.7656 z M 406.04652,218.588 c 0,-2.20254 -0.65066,-3.97347 -1.94266,-5.312 -1.276,-1.3588 -2.948,-2.04107 -5.02667,-2.04107 -2.244,0 -4.06667,0.6344 -5.47333,1.9104 -1.40134,1.25053 -2.276,3.06827 -2.62,5.44267 z"
             style="fill:#4699c2;fill-opacity:1;fill-rule:nonzero;stroke:none;stroke-width:0.133333"
             id="path100-3" /><path
             inkscape:connector-curvature="0"
             d="m 460.33852,210.42133 c 1.468,-2.24427 3.208,-3.94787 5.21867,-5.11453 2.02533,-1.18707 4.25466,-1.78027 6.672,-1.78027 4.16666,0 7.34266,1.28027 9.52533,3.85373 2.17733,2.5676 3.27067,6.30774 3.27067,11.20774 v 22.0948 h -11.66134 v -18.92294 c 0.0213,-0.2812 0.032,-0.56666 0.032,-0.8744 0.02,-0.3016 0.0307,-0.73493 0.0307,-1.29226 0,-2.57187 -0.37467,-4.42654 -1.136,-5.57187 -0.75467,-1.16667 -1.97333,-1.75053 -3.656,-1.75053 -2.20266,0 -3.91066,0.90626 -5.12,2.7188 -1.18666,1.8172 -1.80133,4.44213 -1.848,7.8744 v 17.8188 h -11.66133 v -18.92294 c 0,-4.01453 -0.344,-6.5932 -1.03733,-7.73853 -0.692,-1.16667 -1.92134,-1.75053 -3.692,-1.75053 -2.224,0 -3.94267,0.9172 -5.152,2.75573 -1.208,1.812 -1.812,4.41613 -1.812,7.8068 v 17.84947 h -11.66134 v -36.2812 h 11.66134 v 5.312 c 1.42133,-2.05214 3.05733,-3.59907 4.89066,-4.63494 1.86,-1.03746 3.896,-1.55213 6.12534,-1.55213 2.50533,0 4.71866,0.60413 6.64,1.812 1.92266,1.2084 3.38,2.9068 4.37066,5.0828 z"
             style="fill:#4699c2;fill-opacity:1;fill-rule:nonzero;stroke:none;stroke-width:0.133333"
             id="path102" /><path
             inkscape:connector-curvature="0"
             d="m 524.25452,205.53066 v 8.81307 c -2.484,-1.03693 -4.88,-1.81307 -7.192,-2.33333 -2.308,-0.5156 -4.49067,-0.77547 -6.54267,-0.77547 -2.20266,0 -3.84266,0.2812 -4.92666,0.84373 -1.05734,0.53587 -1.58267,1.38014 -1.58267,2.52547 0,0.92653 0.39467,1.6412 1.19733,2.136 0.81734,0.5 2.276,0.864 4.37467,1.1036 l 2.03733,0.29227 c 5.94267,0.75466 9.93734,1.99466 11.98934,3.72386 2.052,1.72814 3.07733,4.43747 3.07733,8.12974 0,3.86506 -1.42667,6.77026 -4.276,8.71306 -2.85333,1.94787 -7.10933,2.91707 -12.76533,2.91707 -2.396,0 -4.88,-0.1932 -7.45334,-0.58373 -2.54666,-0.36414 -5.172,-0.92667 -7.86933,-1.68134 v -8.81346 c 2.312,1.12546 4.67733,1.964 7.09333,2.52706 2.44267,0.5624 4.912,0.84374 7.41734,0.84374 2.27066,0 3.97333,-0.3136 5.12,-0.94267 1.14533,-0.6256 1.71866,-1.5532 1.71866,-2.78133 0,-1.03747 -0.40133,-1.80774 -1.19866,-2.30254 -0.78134,-0.52146 -2.344,-0.91613 -4.69734,-1.19746 l -2.04266,-0.26147 c -5.16134,-0.64533 -8.78,-1.84267 -10.85334,-3.5932 -2.07333,-1.75053 -3.10933,-4.4068 -3.10933,-7.96933 0,-3.84787 1.31733,-6.69734 3.95333,-8.552 2.63467,-1.85894 6.672,-2.78547 12.11467,-2.78547 2.14,0 4.38533,0.16147 6.73867,0.48387 2.35466,0.32293 4.912,0.83333 7.67733,1.52026 z"
             style="fill:#4699c2;fill-opacity:1;fill-rule:nonzero;stroke:none;stroke-width:0.133333"
             id="path104-6" /></g></g></g></g></svg>
